<svg xmlns="http://www.w3.org/2000/svg" width="130" height="93" viewBox="0 0 130 93"><defs><style>.a{fill:rgba(255,255,255,0);}.b{fill:#e8eaec;}.c{fill:#fff;fill-rule:evenodd;}.d{fill:#7d8b00;}.e{fill:#afbd00;}.f{fill:#004314;}.g{fill:#851e55;}.h{fill:#9d1d62;}.i{fill:#591139;}.j{fill:#00327a;}.k{fill:#0074b6;}.l{fill:#008fd2;}.m{fill:#007eca;}</style></defs><g transform="translate(-1122 -496)"><rect class="a" width="130" height="93" transform="translate(1122 496)"/><g transform="translate(915.299 342.081)"><path class="b" d="M412.941,317.359c0,2.069,7.972,3.746,17.806,3.746s17.806-1.677,17.806-3.746-7.972-3.747-17.806-3.747-17.806,1.677-17.806,3.747" transform="translate(-141.807 -108.134)"/><path class="c" d="M255.109,339.067a.925.925,0,0,1,.925,1.154,1.342,1.342,0,0,1-1.291,1.154.923.923,0,0,1-.925-1.154,1.346,1.346,0,0,1,1.291-1.154m-.443,2.8a1.98,1.98,0,0,0,1.9-1.638,1.362,1.362,0,0,0-1.376-1.651,1.989,1.989,0,0,0-1.9,1.651A1.356,1.356,0,0,0,254.666,341.865Zm-5.3-3.2h-.529l-.77,4.867h.529l.346-2.188h.013a1.1,1.1,0,0,0,.986.524,1.837,1.837,0,0,0,1.757-1.638,1.294,1.294,0,0,0-1.23-1.651,1.559,1.559,0,0,0-1.158.53H249.3Zm.925.4a.874.874,0,0,1,.87,1.127,1.289,1.289,0,0,1-1.229,1.18c-.663,0-.931-.577-.833-1.187A1.284,1.284,0,0,1,250.294,339.067Zm-5.455-.4h-.529l-.285,1.8c-.13.829.09,1.406,1.011,1.406s1.324-.577,1.456-1.406l.284-1.8h-.53l-.275,1.737c-.083.524-.214.975-.858.975s-.632-.451-.549-.975Zm-3.329,0h-.529l-.494,3.117h.53l.247-1.558c.064-.4.209-1.154.793-1.154a.435.435,0,0,1,.3.139l.329-.484a.823.823,0,0,0-.454-.146.97.97,0,0,0-.757.424h-.013Zm-4.592.6-.082.517h1.485a2.084,2.084,0,0,1-2.031,1.565,1.731,1.731,0,0,1-1.679-2.049,2.528,2.528,0,0,1,2.374-2.089,1.688,1.688,0,0,1,1.568.942l.464-.378a2.156,2.156,0,0,0-1.944-1.081,3.169,3.169,0,0,0-3.017,2.6,2.155,2.155,0,0,0,2.165,2.573,2.913,2.913,0,0,0,1.983-.836,2.759,2.759,0,0,0,.8-1.764Z" transform="translate(-15.102 -124.48)"/><path class="c" d="M317.591,369.62v-18.7h3.668v6.417a4.841,4.841,0,0,1,1.786-1.414,5.487,5.487,0,0,1,2.315-.477,5.552,5.552,0,0,1,2.207.421,3.951,3.951,0,0,1,1.591,1.192,3.051,3.051,0,0,1,.589,1.192,9.451,9.451,0,0,1,.173,2.159v9.213h-3.668v-7.232a6.717,6.717,0,0,0-.468-3.221,1.951,1.951,0,0,0-1.691-.655,2.759,2.759,0,0,0-2.072.781,2.922,2.922,0,0,0-.763,2.129v8.2Zm-5.022-5.2h3.642a6.046,6.046,0,0,1-1.921,4.149,6.239,6.239,0,0,1-4.344,1.522,5.933,5.933,0,0,1-4.722-1.964,7.992,7.992,0,0,1-1.708-5.432,7.851,7.851,0,0,1,1.747-5.415,6.105,6.105,0,0,1,4.808-1.964,6.271,6.271,0,0,1,4.3,1.422,5.584,5.584,0,0,1,1.812,3.963h-3.668a2.724,2.724,0,0,0-.776-1.682,2.314,2.314,0,0,0-1.639-.581,2.264,2.264,0,0,0-2.055,1.08,6.145,6.145,0,0,0-.681,3.239,5.556,5.556,0,0,0,.707,3.065,2.276,2.276,0,0,0,2.029,1.071,2.248,2.248,0,0,0,1.652-.62A3.241,3.241,0,0,0,312.569,364.417Zm-19.018-3.147h5.437a3.168,3.168,0,0,0-.741-2.129,2.609,2.609,0,0,0-1.99-.733,2.492,2.492,0,0,0-1.9.737A3.454,3.454,0,0,0,293.551,361.27Zm5.385,4.162h3.694a5.894,5.894,0,0,1-2.255,3.421,6.843,6.843,0,0,1-4.141,1.236,5.982,5.982,0,0,1-4.752-2.012,8.027,8.027,0,0,1-1.756-5.459,7.813,7.813,0,0,1,1.726-5.35,5.98,5.98,0,0,1,4.726-1.955,6.256,6.256,0,0,1,4.908,1.925,7.954,7.954,0,0,1,1.725,5.485c0,.264,0,.46,0,.594s-.017.256-.03.373h-9.226a3.964,3.964,0,0,0,.793,2.454,2.584,2.584,0,0,0,2.064.824,2.95,2.95,0,0,0,1.561-.373A2.55,2.55,0,0,0,298.936,365.432Zm-9.6,4.292c-.338.009-.746.022-1.214.043s-.772.035-.9.035a4.086,4.086,0,0,1-2.909-.793,4.576,4.576,0,0,1-.78-3.135v-7.466h-1.825v-2.6h1.825v-3.772H287.2v3.772h2.133v2.6H287.2v7.644a.836.836,0,0,0,.243.715,1.864,1.864,0,0,0,.989.173h.9ZM272.53,361.27h5.437a3.169,3.169,0,0,0-.741-2.129,2.61,2.61,0,0,0-1.99-.733,2.493,2.493,0,0,0-1.9.737A3.452,3.452,0,0,0,272.53,361.27Zm5.385,4.162h3.694a5.9,5.9,0,0,1-2.255,3.421,6.842,6.842,0,0,1-4.14,1.236,5.981,5.981,0,0,1-4.752-2.012,8.026,8.026,0,0,1-1.756-5.459,7.812,7.812,0,0,1,1.726-5.35,5.98,5.98,0,0,1,4.726-1.955,6.255,6.255,0,0,1,4.908,1.925,7.954,7.954,0,0,1,1.725,5.485c0,.264,0,.46,0,.594s-.018.256-.03.373H272.53a3.962,3.962,0,0,0,.793,2.454,2.583,2.583,0,0,0,2.064.824,2.948,2.948,0,0,0,1.561-.373A2.551,2.551,0,0,0,277.914,365.432Zm-23.648,5.515,4.032-.013a1.641,1.641,0,0,0,.728,1.045,2.78,2.78,0,0,0,1.483.347,3.237,3.237,0,0,0,2.411-.728,4.012,4.012,0,0,0,.685-2.7v-1.231a3.68,3.68,0,0,1-1.517,1.478,5.122,5.122,0,0,1-2.332.477,5.333,5.333,0,0,1-4.292-1.912,7.63,7.63,0,0,1-1.613-5.09,8.292,8.292,0,0,1,1.582-5.329,5.173,5.173,0,0,1,4.262-1.977,4.928,4.928,0,0,1,2.38.533,4.158,4.158,0,0,1,1.608,1.63v-1.669H267.2v12.9a10.309,10.309,0,0,1-.407,3.316,4.2,4.2,0,0,1-1.383,1.921,5.765,5.765,0,0,1-2.129.984,11.614,11.614,0,0,1-2.939.338,7.4,7.4,0,0,1-4.357-1.132A4.031,4.031,0,0,1,254.266,370.947Zm3.33-8.45a4.913,4.913,0,0,0,.78,2.987,2.911,2.911,0,0,0,4.462,0,5.073,5.073,0,0,0,.767-3.035,4.72,4.72,0,0,0-.793-2.927,2.68,2.68,0,0,0-2.255-1.036,2.553,2.553,0,0,0-2.185,1.054A4.924,4.924,0,0,0,257.6,362.5Zm-8.746.329a9.825,9.825,0,0,1-2.077.672c-.785.169-1.188.26-1.214.269a2.97,2.97,0,0,0-1.37.7,1.641,1.641,0,0,0-.386,1.153,1.553,1.553,0,0,0,.494,1.21,1.922,1.922,0,0,0,1.335.451,3.214,3.214,0,0,0,2.359-.845,3.071,3.071,0,0,0,.858-2.3Zm.065,5.077a4.615,4.615,0,0,1-1.834,1.643,5.812,5.812,0,0,1-2.632.568,4.078,4.078,0,0,1-3.1-1.14,4.542,4.542,0,0,1-1.088-3.252,3.911,3.911,0,0,1,1.088-2.983,6.669,6.669,0,0,1,3.59-1.409c.381-.061.884-.126,1.5-.2q2.354-.306,2.354-1.362a1.355,1.355,0,0,0-.52-1.2,3.141,3.141,0,0,0-1.743-.364,2.823,2.823,0,0,0-1.717.446,1.488,1.488,0,0,0-.6,1.275v.2h-3.46v-.256a4.066,4.066,0,0,1,1.5-3.343,6.393,6.393,0,0,1,4.141-1.214,8.146,8.146,0,0,1,4.444,1.006,3.256,3.256,0,0,1,1.543,2.9v7.843a3.57,3.57,0,0,0,.178,1.292,1.243,1.243,0,0,0,.6.642v.624h-3.85a3.324,3.324,0,0,1-.29-.789A4.457,4.457,0,0,1,248.915,367.9Zm-29.7,1.717V355.806h3.5v1.526a5.356,5.356,0,0,1,1.73-1.435,4.613,4.613,0,0,1,2.111-.481,4.763,4.763,0,0,1,2.237.49,4.379,4.379,0,0,1,1.613,1.539,4.612,4.612,0,0,1,3.924-2.029,4.207,4.207,0,0,1,4.522,4.548v9.655h-3.642v-8.9a2.138,2.138,0,0,0-.542-1.557,2,2,0,0,0-1.5-.551,2.177,2.177,0,0,0-1.713.707,2.759,2.759,0,0,0-.637,1.925v8.372H227.2v-8.871a2.208,2.208,0,0,0-.529-1.574,1.929,1.929,0,0,0-1.479-.559,2.171,2.171,0,0,0-1.708.711,2.834,2.834,0,0,0-.629,1.947v8.346Zm-6.514,0v-18.7h3.85v18.7Z" transform="translate(0 -134.552)"/><path class="d" d="M413.319,270.782c3.6-.576,10.634,1.866,15.714,5.455s6.282,6.965,2.683,7.541q-.291.046-.611.067a22.723,22.723,0,0,1-3.755-.066c-.209-.022-.487-.053-.694-.082-.3-.042-.692-.1-.985-.156a19.984,19.984,0,0,1-2-.466c-.187-.051-.434-.126-.617-.187-.325-.108-.756-.256-1.076-.377-.23-.087-.838-.324-1.514-.648-.2-.1-.813-.39-1.506-.8-.549-.322-1.006-.616-1.528-.983-.218-.154-.793-.568-1.417-1.094-.266-.224-.611-.535-.868-.77-.154-.141-.354-.336-.5-.486s-.351-.355-.5-.512c-.2-.215-.465-.5-.654-.728-.172-.2-.4-.475-.568-.687-.264-.341-.608-.8-.862-1.156-1.389-1.985-1.053-3.5,1.251-3.87" transform="translate(-140.606 -77.743)"/><path class="e" d="M428.122,296.227a40.341,40.341,0,0,1-13.813-6.2,23.8,23.8,0,0,1-3.64-3.091,23.011,23.011,0,0,0,17.454,9.288" transform="translate(-140.197 -89.245)"/><path class="f" d="M407.925,267.631h0c3.6-.576,10.634,1.866,15.714,5.455s6.281,6.965,2.683,7.541-10.634-1.866-15.714-5.455-6.281-6.965-2.683-7.54m-1.814-1.282c-1.978.317-2.744,1.34-2.406,2.769a23.028,23.028,0,0,0,1.977,3.167,23.8,23.8,0,0,0,3.641,3.092,40.34,40.34,0,0,0,13.813,6.2c.349.016.7.025,1.053.025a23.064,23.064,0,0,0,6.146-.83c1.067-1.639-.887-4.693-5.41-7.889C418.842,268.584,410.419,265.66,406.11,266.35Z" transform="translate(-135.211 -74.592)"/><path class="d" d="M402.335,232.067c5.831-.933,17.232,3.024,25.465,8.839,7.012,4.954,9.464,9.657,6.432,11.519-.541.332-1.105.653-1.677.953-.789.414-1.434.7-1.71.826-.241.108-.893.392-1.741.706-.36.133-.7.249-.7.25-.471.158-.521.175-1.056.34,3.568-1.082,1.859-5.1-4.166-9.357-6.422-4.536-15.316-7.623-19.865-6.9-2.356.377-3.084,1.7-2.347,3.525-.091-.224-.366-.908-.652-1.757-.292-.864-.483-1.557-.552-1.814-.079-.294-.263-.982-.44-1.866-.023-.114-.053-.266-.074-.381-.041-.228-.095-.533-.132-.763-.033-.194-.05-.317-.114-.774-.23-1.726.842-2.952,3.332-3.35" transform="translate(-131.915 -50.289)"/><path class="f" d="M399.607,230.012h0c5.831-.933,17.232,3.024,25.465,8.839s10.179,11.286,4.347,12.219-17.232-3.024-25.465-8.839-10.179-11.286-4.347-12.22m-1.184-.836a4.367,4.367,0,0,0-3.267,1.753c-.023.42-.035.843-.035,1.268q0,.967.08,1.914c.97,2.337,3.666,5.253,7.916,8.255,8.6,6.073,20.4,10.269,26.855,9.622a23.132,23.132,0,0,0,4.259-3.274c-.041-2.524-2.934-6.192-8.32-10C417.024,232.44,404.718,228.169,398.424,229.176Z" transform="translate(-129.187 -48.234)"/><path class="e" d="M430.166,264.327c-6.458.647-18.257-3.549-26.855-9.622-4.248-3-6.945-5.916-7.916-8.252a22.918,22.918,0,0,0,1.578,6.678c.973,1.787,3.057,3.916,6.15,6.1,6.206,4.384,14.458,7.567,19.919,7.871a22.914,22.914,0,0,0,7.123-2.776" transform="translate(-129.381 -60.573)"/><path class="g" d="M403.954,203.655c6.428-1.029,19,3.334,28.072,9.745,6.56,4.633,9.5,9.069,8.2,11.56a3.7,3.7,0,0,1-2.419,1.695c-.684-2.426-3.464-5.607-8.114-8.891-8.844-6.247-21.091-10.5-27.355-9.5h0c-2.062.33-3.219,1.188-3.527,2.414.113-.453.359-1.381.737-2.507.394-1.174.748-2.018.918-2.424.447-1.054,2.154-1.848,3.492-2.1" transform="translate(-131.798 -30.158)"/><path class="h" d="M404.91,202.171h0c6.428-1.029,19,3.334,28.072,9.745s11.221,12.441,4.793,13.471-19-3.334-28.072-9.745-11.221-12.442-4.793-13.471m-.855-.6a4.955,4.955,0,0,0-3.367,1.668q-.261.584-.49,1.184c-.439,2.71,2.686,6.93,8.9,11.319,9.548,6.744,22.77,11.334,29.532,10.252a6.551,6.551,0,0,0,2.449-.833,23.024,23.024,0,0,0,1.449-2.584c-.035-2.712-3.143-6.659-8.94-10.754C424.04,205.075,410.817,200.485,404.055,201.567Z" transform="translate(-132.754 -28.674)"/><path class="i" d="M437.726,232.482a6.567,6.567,0,0,1-2.447.83c-6.763,1.082-19.985-3.507-29.532-10.252-6.208-4.385-9.334-8.6-8.9-11.312a22.935,22.935,0,0,0-1.418,6.192c.715,2.56,3.652,5.921,8.564,9.391,9.328,6.589,22.245,11.073,28.852,10.015q.459-.073.862-.179a23.166,23.166,0,0,0,4.022-4.686" transform="translate(-129.403 -35.996)"/><path class="g" d="M408.268,188.393c.037-.071.087-.164.125-.234.152-.279.228-.42.385-.7.3-.528.571-.968.673-1.132.669-1.075,1.178-1.76,1.451-2.128a4.632,4.632,0,0,1,3.1-1.519c6.268-1,18.524,3.251,27.373,9.5,5.924,4.185,8.82,8.2,8.207,10.7-.032.135-.153.622-.333,1.237s-.339,1.086-.392,1.244c-.4,1.171-.768,2.049-.947,2.471,1.081-2.521-1.873-6.859-8.281-11.386-9.077-6.411-21.646-10.775-28.075-9.745-1.788.286-2.912.959-3.409,1.919.038-.07.086-.165.123-.235" transform="translate(-138.411 -15.309)"/><path class="i" d="M446.5,210.633a5.661,5.661,0,0,1-2.836,1.137c-6.611,1.058-19.536-3.429-28.869-10.021-6.008-4.244-9.063-8.326-8.713-10.978a23.077,23.077,0,0,0-2.462,3.809c-.641,2.7,2.484,7.025,8.86,11.529,9.548,6.745,22.772,11.335,29.536,10.253a6,6,0,0,0,2.779-1.062,22.892,22.892,0,0,0,1.705-4.666" transform="translate(-135.148 -21.139)"/><path class="h" d="M416.85,181.163h0c6.268-1,18.524,3.251,27.373,9.5S455.165,202.8,448.9,203.8s-18.523-3.251-27.373-9.5-10.942-12.132-4.673-13.135m-.876-.619a7.944,7.944,0,0,0-1.471.371,23.192,23.192,0,0,0-2.312,2.5c-.35,2.652,2.7,6.734,8.712,10.979,9.333,6.593,22.258,11.08,28.869,10.021a5.65,5.65,0,0,0,2.836-1.139,23.032,23.032,0,0,0,.611-3.892c-.963-2.479-3.82-5.6-8.376-8.822C435.511,183.972,422.586,179.486,415.975,180.544Z" transform="translate(-141.257 -13.788)"/><path class="j" d="M469.261,187.457c-.054-.456-.07-.594-.1-.791-.035-.234-.083-.545-.122-.777-.019-.117-.048-.272-.07-.389-.174-.934-.365-1.655-.428-1.892a25.881,25.881,0,0,0-1.252-3.6c-.721-1.667-2.647-3.734-5.658-5.861-6.383-4.509-15.223-7.577-19.744-6.854-2.005.233-3.688,1.336-5.49,2.538,5.78-.925,17.081,3,25.241,8.762,4.729,3.34,7.365,6.566,7.621,8.868" transform="translate(-158.42 -4.436)"/><path class="k" d="M457.991,182.406c-.1-.321-.235-.732-.4-1.181.726,1.962-.113,3.385-2.685,3.8-5.092.815-15.048-2.641-22.237-7.719-5.6-3.958-7.871-7.733-6.188-9.592a23.068,23.068,0,0,0-6.347,4.2c-.493,2.5,2.389,6.433,8.191,10.532,8.8,6.22,21,10.452,27.235,9.454,1.71-.274,2.794-.912,3.286-1.823.024-.432.037-.866.037-1.3a23.053,23.053,0,0,0-.891-6.366" transform="translate(-146.862 -4.809)"/><path class="l" d="M444.546,164.757h0c4.521-.724,13.361,2.345,19.744,6.854s7.892,8.751,3.371,9.474-13.361-2.345-19.744-6.854-7.892-8.75-3.371-9.474m-3.851.048c-1.683,1.859.585,5.634,6.188,9.592,7.189,5.078,17.145,8.534,22.237,7.719s3.392-5.593-3.8-10.671c-6.781-4.79-16.024-8.136-21.324-7.816A22.9,22.9,0,0,0,440.7,164.8Z" transform="translate(-161.077 -1.903)"/><path class="m" d="M470.009,171.445c3.534,2.5,5.741,4.921,6.467,6.837a3.082,3.082,0,0,1-1.555.917c.313-1.811-1.776-4.642-5.946-7.588-6.383-4.509-15.223-7.577-19.744-6.854a3.482,3.482,0,0,0-2.157,1,3.469,3.469,0,0,1-.3-1.514q.938-.346,1.914-.61c5.3-.32,14.543,3.026,21.324,7.816" transform="translate(-165.762 -1.903)"/><path class="k" d="M479.175,173.1c.7,1.718.01,2.969-2.211,3.325-4.288.686-12.671-2.224-18.724-6.5-4.989-3.525-6.838-6.877-4.932-8.33A23.071,23.071,0,0,1,479.175,173.1" transform="translate(-169.873 0)"/><path class="k" d="M426.48,167.71c-1.683,1.859.585,5.634,6.188,9.592a49,49,0,0,0,9.951,5.341,28.594,28.594,0,0,1-9.96,2.557c-1.5-.862-2.961-1.784-4.336-2.755-5.8-4.1-8.684-8.036-8.191-10.532a23.068,23.068,0,0,1,6.347-4.2" transform="translate(-146.862 -4.809)"/></g></g></svg>